<svg id="svg" version="1.1" xmlns="http://www.w3.org/2000/svg" xmlns:xlink="http://www.w3.org/1999/xlink" width="400" height="242.5531914893617" viewBox="0, 0, 400,242.5531914893617"><g id="svgg"><path id="path0" d="M173.745 23.292 C 168.028 26.571,169.082 34.156,175.571 36.436 C 183.700 39.291,191.344 33.865,188.621 27.172 C 187.098 23.429,185.363 22.564,179.381 22.564 L 175.015 22.564 173.745 23.292 M200.243 22.897 C 195.594 24.359,193.116 30.303,195.596 34.040 C 196.882 35.978,200.856 38.757,206.307 41.529 C 207.702 42.238,208.298 42.588,210.773 44.151 C 212.144 45.017,213.907 46.216,214.692 46.816 C 215.478 47.417,216.792 48.399,217.613 48.999 C 218.434 49.600,219.229 50.200,219.380 50.334 C 219.530 50.467,220.798 51.441,222.198 52.498 C 227.480 56.489,234.017 62.878,239.341 69.254 C 240.009 70.055,240.882 71.056,241.281 71.480 C 242.129 72.382,245.321 76.571,246.235 77.982 C 247.235 79.525,249.483 83.231,250.064 84.294 C 250.356 84.827,250.850 85.700,251.163 86.234 C 252.052 87.751,254.457 92.579,254.457 92.847 C 254.457 92.980,254.614 93.218,254.806 93.377 C 254.997 93.536,255.229 94.013,255.321 94.438 C 255.413 94.862,255.689 95.591,255.934 96.058 C 256.640 97.404,257.611 99.642,257.611 99.925 C 257.611 100.067,257.829 100.591,258.096 101.089 C 258.363 101.587,258.581 102.191,258.581 102.432 C 258.581 102.673,258.799 103.297,259.066 103.820 C 259.333 104.344,259.551 104.939,259.551 105.143 C 259.551 105.347,259.827 106.361,260.164 107.396 C 261.598 111.800,262.278 114.294,262.729 116.798 C 262.873 117.599,263.190 119.127,263.433 120.194 C 263.676 121.261,263.946 123.006,264.033 124.071 C 264.120 125.136,264.354 126.774,264.553 127.710 C 264.755 128.655,265.013 131.838,265.134 134.870 C 265.254 137.871,265.425 140.998,265.515 141.818 C 265.736 143.822,265.933 143.764,258.338 143.921 C 248.453 144.125,244.501 145.372,240.138 149.660 C 237.821 151.939,236.336 155.940,236.986 158.155 C 237.123 158.621,237.235 159.250,237.235 159.554 C 237.235 161.522,240.754 166.903,243.149 168.597 C 245.245 170.080,245.154 170.115,247.515 166.908 C 249.863 163.720,253.477 161.334,257.929 160.034 C 260.081 159.405,268.251 159.224,270.364 159.758 C 272.248 160.234,276.340 160.459,276.971 160.121 C 277.615 159.777,279.356 157.457,280.085 155.973 C 281.192 153.719,281.829 143.273,281.297 136.098 C 281.084 133.221,280.844 129.721,280.765 128.320 C 280.686 126.919,280.410 124.715,280.153 123.422 C 279.895 122.129,279.685 120.659,279.685 120.155 C 279.685 119.652,279.477 118.363,279.224 117.291 C 278.971 116.219,278.658 114.797,278.529 114.130 C 278.109 111.957,277.104 108.238,276.136 105.276 C 275.940 104.676,275.628 103.639,275.443 102.971 C 275.030 101.483,274.200 99.099,273.754 98.120 C 273.572 97.720,273.125 96.574,272.762 95.573 C 272.398 94.572,271.881 93.263,271.612 92.662 C 271.344 92.062,270.927 91.134,270.687 90.600 C 269.540 88.053,269.056 86.917,268.904 86.419 C 268.762 85.955,268.179 84.863,267.315 83.445 C 267.193 83.244,266.784 82.426,266.406 81.625 C 264.929 78.495,260.201 71.058,256.844 66.586 C 253.478 62.102,251.883 60.046,250.929 58.965 C 250.389 58.354,249.640 57.471,249.265 57.004 C 248.119 55.579,244.754 51.921,242.450 49.598 C 234.892 41.975,229.555 37.618,221.468 32.468 C 220.867 32.086,220.212 31.665,220.012 31.532 C 219.812 31.399,218.950 30.827,218.096 30.260 C 216.427 29.152,215.010 28.269,214.445 27.984 C 214.251 27.886,213.433 27.408,212.626 26.922 C 206.633 23.309,202.846 22.078,200.243 22.897 M63.918 151.352 C 60.102 151.659,54.492 152.337,53.487 152.614 C 52.953 152.761,51.643 153.073,50.576 153.308 C 47.196 154.053,45.650 154.870,43.698 156.943 C 42.960 157.727,41.480 159.952,41.480 160.278 C 41.480 160.416,41.264 161.005,41.000 161.587 C 40.423 162.857,40.368 164.287,40.879 164.710 C 41.343 165.095,44.365 164.857,45.327 164.359 C 45.688 164.173,46.417 163.941,46.946 163.845 C 47.475 163.749,48.190 163.528,48.534 163.354 C 49.036 163.101,52.090 162.280,52.532 162.280 C 52.855 162.280,52.556 163.465,52.045 164.208 C 51.719 164.682,51.187 165.834,50.864 166.768 C 49.875 169.626,49.185 171.804,48.867 173.075 C 48.700 173.742,48.448 174.615,48.306 175.015 C 48.164 175.415,47.769 176.725,47.427 177.926 C 47.085 179.127,46.593 180.819,46.334 181.686 C 46.075 182.553,45.626 184.081,45.336 185.082 C 45.047 186.082,44.546 187.774,44.224 188.842 C 43.251 192.070,42.733 193.830,42.085 196.119 C 41.746 197.320,41.298 198.793,41.092 199.394 C 40.885 199.994,40.621 200.929,40.507 201.473 C 40.392 202.016,40.137 202.889,39.940 203.413 C 39.042 205.805,39.273 207.471,40.648 208.520 C 44.866 211.737,62.192 212.568,69.982 209.927 C 80.410 206.393,87.023 201.120,91.637 192.662 C 91.801 192.362,92.039 191.925,92.167 191.692 C 94.867 186.766,96.956 177.867,96.709 172.347 C 96.549 168.778,95.566 164.787,94.230 162.280 C 94.052 161.947,93.713 161.292,93.476 160.825 C 92.296 158.495,85.777 153.322,83.995 153.300 C 83.759 153.297,83.112 153.088,82.558 152.837 C 82.004 152.585,80.803 152.262,79.890 152.118 C 78.977 151.975,77.847 151.736,77.380 151.587 C 76.366 151.265,67.036 151.101,63.918 151.352 M173.075 152.832 C 170.079 153.539,166.695 154.741,164.890 155.741 C 164.658 155.869,163.784 156.338,162.949 156.782 C 156.524 160.199,148.858 167.482,144.396 174.409 C 143.924 175.143,143.338 176.032,143.095 176.386 C 142.852 176.739,142.583 177.308,142.498 177.649 C 142.412 177.991,142.189 178.397,142.002 178.552 C 141.815 178.707,141.662 178.937,141.662 179.063 C 141.662 179.188,141.348 179.966,140.964 180.792 C 139.769 183.364,139.478 184.055,139.478 184.329 C 139.478 184.475,139.267 185.223,139.008 185.991 C 137.679 189.929,137.730 197.684,139.112 201.941 C 142.025 210.906,151.124 214.136,160.104 209.392 C 161.865 208.462,165.511 205.878,166.152 205.105 C 166.501 204.685,167.268 204.605,167.492 204.967 C 167.673 205.261,167.060 208.549,166.391 210.872 C 165.576 213.697,164.706 216.459,164.466 216.980 C 164.343 217.247,164.079 217.876,163.879 218.378 C 163.129 220.261,162.354 219.978,158.656 216.470 L 155.677 213.643 154.386 213.776 C 153.676 213.849,152.787 214.122,152.412 214.381 C 152.036 214.641,151.100 215.256,150.331 215.749 C 148.007 217.240,146.270 219.374,146.270 220.740 C 146.270 224.967,157.546 228.876,164.447 227.041 C 165.438 226.777,166.423 226.562,166.634 226.562 C 166.845 226.562,167.398 226.359,167.863 226.110 C 168.328 225.862,168.973 225.576,169.295 225.474 C 170.810 224.998,173.339 222.928,174.486 221.225 C 176.825 217.753,177.717 216.239,179.215 213.203 C 180.174 211.259,180.958 209.507,180.958 209.310 C 180.958 209.112,181.056 208.847,181.175 208.720 C 181.431 208.448,182.584 205.693,182.940 204.503 C 183.077 204.045,183.331 203.445,183.505 203.169 C 183.679 202.894,183.898 202.286,183.992 201.819 C 184.086 201.352,184.302 200.643,184.472 200.243 C 184.870 199.305,186.894 192.918,187.393 191.025 C 189.710 182.242,189.711 181.438,187.408 180.622 C 186.292 180.227,181.096 181.386,178.047 182.710 C 172.816 184.982,172.376 185.413,169.315 191.267 C 168.478 192.868,167.644 194.351,167.462 194.561 C 167.280 194.772,167.132 195.052,167.132 195.183 C 167.132 195.716,163.681 199.134,162.627 199.644 C 158.436 201.673,154.636 196.142,155.811 189.725 C 156.022 188.572,156.268 187.029,156.357 186.295 C 156.446 185.561,156.627 184.688,156.759 184.354 C 156.892 184.021,157.195 183.038,157.433 182.171 C 158.604 177.899,161.431 171.776,163.424 169.193 C 163.733 168.793,164.066 168.354,164.164 168.218 C 167.026 164.248,173.081 159.692,175.217 159.902 C 176.957 160.073,176.845 167.521,175.037 171.804 C 174.855 172.236,174.465 173.144,174.171 173.822 C 173.011 176.496,174.101 177.118,177.991 176.003 C 179.290 175.631,180.515 175.188,180.716 175.018 C 180.916 174.849,181.407 174.544,181.807 174.341 C 187.715 171.342,190.952 160.386,187.294 155.767 C 184.821 152.645,178.978 151.439,173.075 152.832 M217.755 152.948 C 215.484 153.741,213.684 154.914,211.252 157.185 C 210.603 157.791,207.795 161.416,207.289 162.301 C 207.029 162.757,206.368 163.895,205.821 164.832 C 205.273 165.769,203.702 168.825,202.329 171.624 C 200.956 174.423,199.742 176.891,199.630 177.108 C 199.518 177.324,199.081 178.416,198.659 179.533 C 198.237 180.650,197.692 182.056,197.449 182.656 C 196.791 184.279,195.544 188.142,194.981 190.297 C 194.842 190.831,194.524 191.977,194.274 192.844 C 194.024 193.711,193.708 195.349,193.573 196.483 C 193.438 197.617,193.219 199.200,193.087 200.000 C 191.936 206.976,195.656 213.699,199.279 211.191 C 199.542 211.009,200.022 210.777,200.345 210.676 C 202.435 210.023,206.151 206.966,211.621 201.399 C 215.740 197.207,216.785 196.315,216.891 196.907 C 216.909 197.007,216.948 198.781,216.978 200.849 C 217.130 211.447,222.889 214.385,232.221 208.628 C 233.676 207.731,233.714 206.066,232.353 202.728 C 232.204 202.361,231.927 201.324,231.738 200.424 C 231.550 199.524,231.278 198.241,231.134 197.574 C 230.798 196.010,231.012 190.587,231.498 188.351 C 232.049 185.817,232.251 182.049,231.921 180.462 C 231.294 177.445,227.436 177.000,223.856 179.532 C 223.502 179.783,223.139 179.988,223.050 179.988 C 222.381 179.988,217.462 184.018,213.798 187.568 C 210.269 190.987,209.307 191.247,210.018 188.589 C 210.169 188.025,210.412 186.541,210.557 185.291 C 210.702 184.042,210.973 182.529,211.159 181.928 C 211.345 181.328,211.613 180.237,211.754 179.503 C 211.895 178.769,212.292 177.186,212.634 175.985 C 212.977 174.785,213.460 173.093,213.706 172.226 C 214.253 170.306,215.753 166.154,216.380 164.827 C 216.632 164.294,217.138 163.147,217.505 162.280 C 217.872 161.413,218.351 160.431,218.569 160.097 C 220.546 157.077,220.503 157.117,221.407 157.453 C 222.282 157.778,221.797 163.657,220.637 166.768 C 220.439 167.301,220.271 167.961,220.265 168.233 C 220.259 168.504,220.043 169.143,219.784 169.651 C 219.525 170.159,219.238 170.915,219.147 171.330 C 218.973 172.123,218.710 172.705,216.961 176.172 C 214.397 181.256,216.371 181.733,222.587 177.531 C 224.430 176.285,227.871 172.632,228.840 170.891 C 229.063 170.491,229.525 169.673,229.866 169.072 C 235.345 159.427,227.833 149.425,217.755 152.948 M342.511 153.979 C 339.013 155.466,337.434 156.932,335.791 160.218 C 334.700 162.403,334.021 163.921,334.021 164.178 C 334.021 164.328,333.813 164.917,333.559 165.488 C 333.305 166.058,332.795 167.319,332.426 168.289 C 331.878 169.733,331.642 170.080,331.130 170.200 C 326.209 171.352,322.822 179.547,326.743 180.812 C 327.753 181.138,327.898 182.486,327.179 184.862 C 326.148 188.265,325.780 189.654,325.640 190.661 C 325.556 191.261,325.288 192.408,325.043 193.208 C 322.758 200.685,324.730 207.455,329.897 209.872 C 331.957 210.836,335.831 210.977,337.659 210.155 C 338.260 209.885,339.062 209.586,339.442 209.491 C 342.448 208.738,348.076 203.032,345.811 203.032 C 343.732 203.032,340.987 201.482,339.958 199.727 C 339.299 198.602,339.090 192.608,339.613 189.812 C 339.737 189.145,340.004 187.513,340.206 186.185 C 340.827 182.088,341.496 180.726,342.888 180.719 C 346.443 180.701,349.805 177.610,350.181 174.011 C 350.413 171.787,349.550 170.844,346.877 170.407 C 345.176 170.129,344.856 169.884,345.024 168.988 C 345.324 167.392,346.699 163.111,347.382 161.647 C 347.638 161.099,347.847 160.497,347.847 160.309 C 347.847 160.122,348.049 159.588,348.295 159.123 C 350.551 154.865,347.277 151.954,342.511 153.979 M71.891 162.341 C 75.037 163.501,79.267 168.906,79.912 172.589 C 80.006 173.123,80.256 174.051,80.469 174.651 C 81.067 176.338,81.047 184.391,80.440 186.537 C 80.195 187.404,79.913 188.496,79.814 188.963 C 79.482 190.527,77.894 193.904,76.483 196.046 C 73.603 200.416,69.271 203.709,65.373 204.490 C 62.209 205.123,61.639 205.187,58.998 205.201 C 55.898 205.217,55.679 205.085,56.435 203.653 C 58.321 200.080,59.061 198.149,59.554 195.512 C 59.717 194.645,60.152 192.844,60.522 191.510 C 60.891 190.176,61.385 188.266,61.619 187.265 C 61.852 186.264,62.160 185.118,62.303 184.718 C 62.562 183.992,63.038 182.138,63.674 179.381 C 63.859 178.581,64.180 177.380,64.388 176.713 C 64.596 176.046,64.935 174.845,65.141 174.045 C 65.347 173.244,65.670 171.989,65.859 171.255 C 66.048 170.522,66.384 169.212,66.607 168.344 C 66.829 167.477,67.215 166.105,67.465 165.295 C 67.715 164.485,67.920 163.646,67.920 163.431 C 67.920 161.695,69.193 161.345,71.891 162.341 M260.885 168.954 C 259.284 169.259,257.647 169.682,257.247 169.895 C 256.847 170.108,256.391 170.283,256.234 170.284 C 255.752 170.286,252.491 172.048,250.714 173.265 C 250.171 173.637,249.320 174.210,248.821 174.539 C 246.070 176.356,239.418 184.100,239.418 185.485 C 239.418 185.570,239.152 186.197,238.827 186.877 C 234.963 194.964,236.102 203.241,241.639 207.305 C 247.323 211.477,257.623 212.769,263.796 210.083 C 265.603 209.296,267.734 208.315,268.041 208.127 C 268.241 208.005,268.951 207.584,269.618 207.192 C 276.220 203.309,279.924 196.781,280.348 188.284 C 280.710 181.014,277.011 174.861,271.922 174.271 C 269.706 174.014,265.566 175.109,263.945 176.380 C 263.627 176.630,263.245 176.835,263.096 176.836 C 262.632 176.838,261.007 178.485,261.007 178.953 C 261.007 179.199,261.677 179.996,262.497 180.724 C 269.800 187.216,269.746 199.659,262.400 203.421 C 255.307 207.054,249.083 196.400,252.652 186.735 C 254.026 183.013,254.453 182.081,255.619 180.253 C 258.977 174.993,262.781 172.505,268.975 171.520 C 270.717 171.242,271.195 170.951,271.195 170.164 C 271.195 168.508,266.271 167.930,260.885 168.954 M122.741 170.179 C 120.524 170.460,119.575 170.772,116.677 172.173 C 108.706 176.027,102.380 184.572,99.758 195.027 C 96.218 209.142,107.442 216.013,121.407 208.281 C 122.883 207.464,123.892 206.815,127.922 204.094 C 129.375 203.113,132.877 199.634,133.031 199.018 C 133.290 197.990,132.703 197.150,131.474 196.787 C 129.643 196.246,128.947 196.539,124.682 199.638 C 120.966 202.338,117.573 203.391,115.702 202.423 C 114.312 201.705,114.049 200.364,115.298 200.364 C 116.670 200.364,118.940 199.855,119.582 199.403 C 119.918 199.166,120.443 198.895,120.748 198.800 C 124.559 197.617,131.494 189.192,133.230 183.638 C 135.951 174.936,131.390 169.084,122.741 170.179 M307.032 170.315 C 305.863 170.426,304.586 170.684,304.194 170.887 C 303.802 171.089,303.278 171.255,303.031 171.255 C 302.784 171.255,301.550 171.765,300.290 172.387 C 290.967 176.993,284.933 185.495,286.031 192.480 C 286.550 195.787,289.978 198.422,295.816 200.002 C 304.418 202.329,306.416 206.016,301.882 211.199 C 297.483 216.228,293.619 212.337,296.380 205.660 C 297.805 202.217,296.572 201.338,292.568 202.939 C 283.876 206.417,281.707 215.191,288.773 218.290 C 291.389 219.437,297.840 219.576,301.039 218.554 C 301.870 218.289,302.719 218.072,302.927 218.072 C 303.134 218.072,303.747 217.859,304.290 217.599 C 304.832 217.339,305.549 217.012,305.882 216.872 C 312.010 214.299,318.881 206.618,319.365 201.801 C 319.886 196.602,317.541 194.543,308.672 192.416 C 300.867 190.545,299.473 189.021,300.852 183.869 C 301.887 180.000,304.950 175.926,306.863 175.874 C 308.471 175.831,309.058 181.375,307.930 185.966 C 307.247 188.745,307.286 189.196,308.257 189.843 C 310.016 191.014,313.456 189.882,316.080 187.269 C 324.250 179.132,318.939 169.179,307.032 170.315 M122.466 176.613 C 123.022 177.210,123.213 178.844,122.931 180.594 C 122.823 181.261,122.620 182.626,122.479 183.626 C 121.798 188.452,119.146 194.057,116.136 197.029 C 114.138 199.002,113.522 198.713,113.525 195.804 C 113.531 190.036,119.278 176.107,121.652 176.107 C 121.840 176.107,122.207 176.335,122.466 176.613 " stroke="none" fill="#150708" fill-rule="evenodd"></path><path id="path1" d="M173.799 22.813 C 170.743 24.381,168.983 28.291,169.929 31.410 C 171.252 35.769,175.791 37.951,182.320 37.367 C 190.011 36.679,192.047 26.427,185.207 22.826 C 183.757 22.062,175.279 22.053,173.799 22.813 M199.197 22.921 C 196.867 24.006,195.148 26.307,194.423 29.313 C 193.388 33.607,195.948 36.402,205.579 41.495 C 209.084 43.348,213.884 46.492,217.950 49.597 C 218.707 50.175,221.252 52.134,223.256 53.682 C 226.911 56.506,230.473 59.874,234.073 63.909 C 234.544 64.437,235.694 65.696,236.628 66.706 C 241.294 71.751,244.419 75.740,247.079 80.049 C 248.108 81.716,249.120 83.354,249.326 83.687 C 249.533 84.021,250.021 84.894,250.410 85.628 C 250.800 86.361,251.216 87.083,251.334 87.231 C 251.557 87.510,253.901 92.233,254.721 94.057 C 254.976 94.624,255.394 95.552,255.650 96.119 C 257.927 101.170,259.587 105.974,261.370 112.674 C 261.584 113.475,261.921 114.649,262.121 115.285 C 262.321 115.920,262.582 117.284,262.701 118.317 C 262.821 119.349,263.074 120.631,263.264 121.164 C 263.454 121.698,263.689 123.226,263.786 124.560 C 263.883 125.894,264.123 127.641,264.321 128.441 C 264.807 130.412,265.220 143.143,264.807 143.436 C 264.651 143.546,262.450 143.576,259.915 143.502 C 254.232 143.336,248.089 144.061,246.816 145.048 C 246.683 145.151,246.002 145.423,245.303 145.650 C 244.604 145.878,243.969 146.167,243.892 146.292 C 243.814 146.418,243.349 146.725,242.858 146.977 C 239.515 148.686,236.507 153.410,236.507 156.950 C 236.507 157.913,236.624 158.505,237.299 160.946 C 238.060 163.702,240.428 167.060,242.935 168.939 C 245.030 170.509,245.361 170.418,247.305 167.738 C 249.048 165.335,253.250 161.795,254.360 161.795 C 254.484 161.795,254.968 161.590,255.435 161.340 C 257.481 160.243,264.683 159.258,265.780 159.925 C 265.889 159.992,266.580 159.949,267.314 159.829 C 268.393 159.654,268.951 159.703,270.236 160.089 C 274.706 161.432,277.372 160.885,279.065 158.278 C 280.722 155.726,280.843 155.418,281.022 153.305 C 281.118 152.171,281.345 150.534,281.528 149.666 C 281.901 147.891,281.961 138.688,281.623 134.991 C 281.513 133.790,281.296 131.061,281.141 128.927 C 280.987 126.792,280.650 124.098,280.394 122.939 C 280.137 121.780,279.927 120.354,279.927 119.769 C 279.927 119.184,279.711 117.895,279.448 116.903 C 279.184 115.911,278.966 114.833,278.963 114.506 C 278.955 113.659,277.516 108.365,276.174 104.243 C 275.837 103.208,275.557 102.225,275.553 102.060 C 275.548 101.894,275.334 101.322,275.076 100.788 C 274.818 100.255,274.603 99.678,274.599 99.507 C 274.594 99.336,274.411 98.790,274.191 98.294 C 273.768 97.340,273.152 95.768,272.650 94.360 C 272.236 93.197,271.380 91.230,269.905 88.053 C 269.565 87.320,269.212 86.418,269.122 86.050 C 269.032 85.682,268.859 85.319,268.738 85.245 C 268.618 85.170,268.359 84.762,268.164 84.338 C 267.968 83.913,267.696 83.402,267.558 83.202 C 267.420 83.002,266.922 82.019,266.451 81.019 C 265.230 78.424,260.367 70.680,258.190 67.863 C 257.804 67.365,256.998 66.295,256.398 65.485 C 250.928 58.111,247.668 54.339,241.358 48.084 C 234.384 41.169,225.747 34.258,220.944 31.750 C 220.589 31.565,219.388 30.798,218.275 30.046 C 217.163 29.294,215.621 28.311,214.849 27.863 C 214.077 27.414,213.040 26.801,212.544 26.502 C 212.049 26.202,211.207 25.733,210.673 25.459 C 210.139 25.185,209.127 24.651,208.424 24.271 C 204.655 22.238,201.618 21.794,199.197 22.921 M184.961 23.139 C 190.621 25.823,190.366 33.802,184.533 36.517 C 181.516 37.922,175.219 37.048,172.606 34.863 C 168.783 31.665,169.359 25.807,173.745 23.292 L 175.015 22.564 179.381 22.564 C 183.472 22.564,183.824 22.600,184.961 23.139 M204.990 23.155 C 206.836 23.821,210.395 25.577,212.626 26.922 C 213.433 27.408,214.251 27.886,214.445 27.984 C 215.010 28.269,216.427 29.152,218.096 30.260 C 218.950 30.827,219.812 31.399,220.012 31.532 C 220.212 31.665,220.867 32.086,221.468 32.468 C 229.555 37.618,234.892 41.975,242.450 49.598 C 244.754 51.921,248.119 55.579,249.265 57.004 C 249.640 57.471,250.389 58.354,250.929 58.965 C 251.883 60.046,253.478 62.102,256.844 66.586 C 260.201 71.058,264.929 78.495,266.406 81.625 C 266.784 82.426,267.193 83.244,267.315 83.445 C 268.179 84.863,268.762 85.955,268.904 86.419 C 269.056 86.917,269.540 88.053,270.687 90.600 C 270.927 91.134,271.344 92.062,271.612 92.662 C 271.881 93.263,272.398 94.572,272.762 95.573 C 273.125 96.574,273.572 97.720,273.754 98.120 C 274.200 99.099,275.030 101.483,275.443 102.971 C 275.628 103.639,275.940 104.676,276.136 105.276 C 277.104 108.238,278.109 111.957,278.529 114.130 C 278.658 114.797,278.971 116.219,279.224 117.291 C 279.477 118.363,279.685 119.652,279.685 120.155 C 279.685 120.659,279.895 122.129,280.153 123.422 C 280.410 124.715,280.686 126.919,280.765 128.320 C 280.844 129.721,281.084 133.221,281.297 136.098 C 281.829 143.273,281.192 153.719,280.085 155.973 C 279.356 157.457,277.615 159.777,276.971 160.121 C 276.340 160.459,272.248 160.234,270.364 159.758 C 268.251 159.224,260.081 159.405,257.929 160.034 C 253.477 161.334,249.863 163.720,247.515 166.908 C 245.154 170.115,245.245 170.080,243.149 168.597 C 240.754 166.903,237.235 161.522,237.235 159.554 C 237.235 159.250,237.123 158.621,236.986 158.155 C 236.336 155.940,237.821 151.939,240.138 149.660 C 244.501 145.372,248.453 144.125,258.338 143.921 C 265.933 143.764,265.736 143.822,265.515 141.818 C 265.425 140.998,265.254 137.871,265.134 134.870 C 265.013 131.838,264.755 128.655,264.553 127.710 C 264.354 126.774,264.120 125.136,264.033 124.071 C 263.946 123.006,263.676 121.261,263.433 120.194 C 263.190 119.127,262.873 117.599,262.729 116.798 C 262.278 114.294,261.598 111.800,260.164 107.396 C 259.827 106.361,259.551 105.347,259.551 105.143 C 259.551 104.939,259.333 104.344,259.066 103.820 C 258.799 103.297,258.581 102.673,258.581 102.432 C 258.581 102.191,258.363 101.587,258.096 101.089 C 257.829 100.591,257.611 100.067,257.611 99.925 C 257.611 99.642,256.640 97.404,255.934 96.058 C 255.689 95.591,255.413 94.862,255.321 94.438 C 255.229 94.013,254.997 93.536,254.806 93.377 C 254.614 93.218,254.457 92.980,254.457 92.847 C 254.457 92.579,252.052 87.751,251.163 86.234 C 250.850 85.700,250.356 84.827,250.064 84.294 C 249.483 83.231,247.235 79.525,246.235 77.982 C 245.321 76.571,242.129 72.382,241.281 71.480 C 240.882 71.056,240.009 70.055,239.341 69.254 C 234.017 62.878,227.480 56.489,222.198 52.498 C 220.798 51.441,219.530 50.467,219.380 50.334 C 219.229 50.200,218.434 49.600,217.613 48.999 C 216.792 48.399,215.478 47.417,214.692 46.816 C 213.907 46.216,212.144 45.017,210.773 44.151 C 208.298 42.588,207.702 42.238,206.307 41.529 C 195.724 36.146,193.013 32.667,195.348 27.464 C 197.194 23.351,200.918 21.686,204.990 23.155 M211.401 73.432 C 206.416 73.916,200.283 77.870,196.896 82.783 C 183.891 101.649,201.379 127.025,222.188 119.483 C 236.964 114.127,242.195 94.440,232.213 81.749 C 227.179 75.349,220.236 72.575,211.401 73.432 M154.639 74.704 C 146.292 76.047,139.186 83.062,136.936 92.177 C 136.722 93.044,136.445 94.136,136.320 94.603 C 135.926 96.081,136.043 99.937,136.542 101.895 C 136.795 102.887,137.075 104.123,137.165 104.641 C 138.067 109.822,143.668 116.689,149.311 119.532 C 159.238 124.534,172.830 119.834,177.912 109.642 C 181.646 102.152,181.685 94.463,178.027 86.703 C 177.771 86.161,177.562 85.637,177.562 85.538 C 177.562 85.440,176.975 84.574,176.257 83.614 C 171.178 76.820,162.840 73.384,154.639 74.704 M219.042 82.785 C 229.025 85.593,233.072 97.640,226.859 106.051 C 219.414 116.128,202.343 112.344,200.379 100.182 C 198.500 88.542,208.007 79.680,219.042 82.785 M162.523 83.789 C 180.302 89.452,174.818 115.274,156.360 112.812 C 142.147 110.915,138.896 91.379,151.711 84.883 C 155.125 83.152,159.223 82.738,162.523 83.789 M62.768 151.120 C 61.069 151.232,59.158 151.435,58.523 151.571 C 57.888 151.707,56.495 151.896,55.428 151.991 C 54.360 152.086,53.063 152.311,52.546 152.492 C 52.028 152.673,50.900 152.933,50.039 153.071 C 49.177 153.208,48.237 153.470,47.948 153.652 C 47.659 153.833,47.150 154.060,46.816 154.156 C 46.140 154.349,44.097 155.969,43.202 157.022 C 42.369 158.001,41.247 159.691,41.240 159.976 C 41.237 160.109,41.062 160.546,40.851 160.946 C 40.323 161.949,40.134 164.004,40.506 164.699 C 41.030 165.678,45.688 164.982,49.399 163.371 C 51.417 162.495,52.833 162.817,51.840 163.927 C 51.305 164.523,50.237 167.029,49.852 168.587 C 49.671 169.321,49.412 170.249,49.275 170.649 C 49.138 171.049,48.740 172.359,48.390 173.560 C 48.040 174.760,47.547 176.452,47.294 177.320 C 47.041 178.187,46.659 179.442,46.444 180.109 C 46.230 180.776,45.914 181.868,45.741 182.535 C 45.569 183.202,45.256 184.294,45.045 184.961 C 44.834 185.628,44.376 187.156,44.028 188.357 C 42.909 192.213,42.477 193.666,42.080 194.906 C 41.866 195.573,41.541 196.719,41.358 197.453 C 41.175 198.187,40.852 199.333,40.640 200.000 C 40.428 200.667,40.046 201.868,39.792 202.668 C 37.990 208.340,40.077 210.156,49.970 211.530 C 52.699 211.909,62.946 211.809,64.888 211.385 C 65.822 211.181,67.132 210.919,67.799 210.804 C 69.314 210.540,72.089 209.684,73.404 209.074 C 73.953 208.819,74.475 208.611,74.565 208.611 C 74.946 208.611,79.114 206.407,80.316 205.570 C 88.882 199.602,93.733 191.970,96.346 180.352 C 97.051 177.217,97.130 169.439,96.476 167.617 C 96.260 167.016,95.974 166.032,95.840 165.429 C 94.929 161.333,91.269 156.785,86.905 154.325 C 85.674 153.631,84.495 153.062,84.286 153.062 C 84.077 153.062,83.576 152.892,83.173 152.684 C 82.770 152.475,81.657 152.152,80.699 151.964 C 79.741 151.777,78.575 151.503,78.108 151.357 C 77.013 151.013,66.800 150.855,62.768 151.120 M77.380 151.587 C 77.847 151.736,78.977 151.975,79.890 152.118 C 80.803 152.262,82.004 152.585,82.558 152.837 C 83.112 153.088,83.759 153.297,83.995 153.300 C 85.777 153.322,92.296 158.495,93.476 160.825 C 93.713 161.292,94.052 161.947,94.230 162.280 C 95.566 164.787,96.549 168.778,96.709 172.347 C 96.956 177.867,94.867 186.766,92.167 191.692 C 92.039 191.925,91.801 192.362,91.637 192.662 C 87.023 201.120,80.410 206.393,69.982 209.927 C 62.192 212.568,44.866 211.737,40.648 208.520 C 39.273 207.471,39.042 205.805,39.940 203.413 C 40.137 202.889,40.392 202.016,40.507 201.473 C 40.621 200.929,40.885 199.994,41.092 199.394 C 41.298 198.793,41.746 197.320,42.085 196.119 C 42.733 193.830,43.251 192.070,44.224 188.842 C 44.546 187.774,45.047 186.082,45.336 185.082 C 45.626 184.081,46.075 182.553,46.334 181.686 C 46.593 180.819,47.085 179.127,47.427 177.926 C 47.769 176.725,48.164 175.415,48.306 175.015 C 48.448 174.615,48.700 173.742,48.867 173.075 C 49.185 171.804,49.875 169.626,50.864 166.768 C 51.187 165.834,51.719 164.682,52.045 164.208 C 52.556 163.465,52.855 162.280,52.532 162.280 C 52.090 162.280,49.036 163.101,48.534 163.354 C 48.190 163.528,47.475 163.749,46.946 163.845 C 46.417 163.941,45.688 164.173,45.327 164.359 C 44.365 164.857,41.343 165.095,40.879 164.710 C 40.368 164.287,40.423 162.857,41.000 161.587 C 41.264 161.005,41.480 160.416,41.480 160.278 C 41.480 159.952,42.960 157.727,43.698 156.943 C 45.650 154.870,47.196 154.053,50.576 153.308 C 51.643 153.073,52.953 152.761,53.487 152.614 C 54.492 152.337,60.102 151.659,63.918 151.352 C 67.036 151.101,76.366 151.265,77.380 151.587 M173.075 152.468 C 172.408 152.656,171.425 152.916,170.891 153.046 C 169.605 153.357,166.958 154.361,165.508 155.088 C 164.867 155.409,163.851 155.919,163.250 156.220 C 161.237 157.230,157.670 159.709,154.896 162.025 C 152.611 163.934,148.117 168.588,147.105 170.095 C 146.721 170.667,146.016 171.625,145.539 172.226 C 140.736 178.270,137.281 188.035,137.602 194.663 C 138.144 205.893,143.138 211.765,152.146 211.765 C 155.870 211.765,157.462 211.275,161.916 208.763 C 162.658 208.344,165.232 206.433,165.960 205.760 C 167.255 204.563,167.423 206.046,166.391 209.582 C 166.138 210.449,165.645 212.141,165.296 213.341 C 164.946 214.542,164.466 216.016,164.229 216.616 C 163.992 217.216,163.727 218.008,163.641 218.375 C 163.294 219.847,162.151 219.355,159.081 216.413 C 155.513 212.995,154.551 212.703,152.092 214.295 C 151.625 214.597,150.636 215.235,149.894 215.713 C 144.389 219.257,144.760 222.897,150.924 225.810 C 154.479 227.490,160.572 228.312,163.889 227.559 C 166.334 227.003,168.284 226.389,168.844 225.997 C 169.162 225.774,169.564 225.591,169.738 225.591 C 170.543 225.591,173.589 223.056,174.704 221.458 C 174.933 221.130,175.464 220.375,175.884 219.781 C 176.974 218.239,179.726 213.267,179.904 212.518 C 179.987 212.170,180.139 211.777,180.243 211.643 C 180.418 211.417,181.532 208.882,182.695 206.064 C 182.970 205.397,183.359 204.469,183.560 204.002 C 183.760 203.535,184.066 202.662,184.241 202.062 C 184.579 200.895,185.110 199.293,185.808 197.332 C 186.045 196.665,186.479 195.300,186.771 194.300 C 187.063 193.299,187.475 191.935,187.685 191.267 C 187.895 190.600,188.202 189.454,188.366 188.720 C 188.530 187.987,188.841 186.736,189.056 185.941 C 190.272 181.453,188.868 179.567,184.907 180.370 C 181.544 181.052,179.690 181.598,177.899 182.433 C 177.351 182.689,176.829 182.899,176.739 182.899 C 176.407 182.899,172.579 185.171,172.282 185.545 C 171.741 186.224,169.984 189.259,168.827 191.510 C 164.615 199.709,160.015 202.086,157.269 197.482 C 155.466 194.457,155.900 186.608,158.185 180.913 C 158.436 180.288,158.642 179.650,158.642 179.494 C 158.642 179.339,158.797 178.868,158.987 178.448 C 159.177 178.027,159.681 176.865,160.106 175.864 C 160.532 174.864,161.276 173.390,161.759 172.589 C 162.243 171.789,162.803 170.845,163.005 170.492 C 165.542 166.049,172.448 160.099,175.070 160.097 C 176.440 160.096,176.235 168.698,174.801 171.377 C 174.587 171.777,174.411 172.268,174.409 172.468 C 174.408 172.668,174.189 173.189,173.923 173.626 C 173.176 174.850,173.264 176.294,174.106 176.620 C 175.294 177.081,179.859 176.172,180.958 175.256 C 181.158 175.089,181.652 174.786,182.054 174.582 C 183.732 173.734,186.555 170.481,187.678 168.102 C 190.359 162.427,189.815 157.524,186.137 154.202 C 183.965 152.240,177.102 151.329,173.075 152.468 M217.208 152.785 C 213.611 154.205,209.344 158.097,207.040 162.061 C 205.247 165.146,204.482 166.589,202.291 171.013 C 200.937 173.748,199.631 176.422,199.389 176.956 C 198.436 179.059,197.696 180.912,197.696 181.194 C 197.696 181.356,197.534 181.779,197.337 182.134 C 196.919 182.885,196.077 185.266,195.737 186.659 C 195.607 187.192,195.285 188.140,195.021 188.765 C 194.758 189.391,194.542 190.147,194.542 190.446 C 194.542 190.746,194.329 191.708,194.068 192.584 C 191.760 200.338,192.379 208.867,195.424 211.262 C 196.849 212.383,199.895 211.717,202.911 209.623 C 206.011 207.471,206.880 206.689,212.320 201.156 C 214.581 198.856,216.531 197.037,216.654 197.113 C 216.783 197.193,216.813 198.243,216.724 199.596 C 216.446 203.834,217.134 206.790,219.008 209.415 C 221.155 212.423,225.013 212.632,230.321 210.028 C 234.394 208.031,234.386 208.060,232.620 202.426 C 231.026 197.339,230.942 195.134,232.033 187.022 C 232.689 182.143,232.698 181.887,232.273 180.426 C 231.300 177.080,227.612 176.571,223.679 179.239 C 223.330 179.476,222.553 179.986,221.953 180.373 C 221.352 180.760,220.315 181.496,219.648 182.008 C 218.981 182.520,218.056 183.230,217.592 183.586 C 217.128 183.942,215.485 185.461,213.941 186.962 C 211.480 189.354,210.309 190.169,210.309 189.490 C 210.309 186.413,212.711 176.007,214.742 170.285 C 215.145 169.151,215.629 167.732,215.819 167.132 C 216.008 166.531,216.365 165.603,216.612 165.070 C 216.858 164.536,217.360 163.390,217.727 162.523 C 218.093 161.656,218.576 160.673,218.801 160.340 C 219.025 160.006,219.513 159.269,219.886 158.702 C 220.628 157.573,221.072 157.417,221.463 158.147 C 221.736 158.659,221.180 164.156,220.736 165.322 C 220.609 165.655,220.348 166.608,220.155 167.440 C 219.962 168.271,219.633 169.278,219.425 169.679 C 219.216 170.079,219.044 170.550,219.043 170.725 C 219.042 171.083,218.298 172.764,216.709 176.001 C 214.072 181.375,215.958 182.261,221.831 178.408 C 227.988 174.370,232.527 166.797,232.049 161.362 C 231.426 154.282,224.117 150.058,217.208 152.785 M182.817 152.903 C 187.044 154.132,188.812 156.724,188.799 161.674 C 188.786 166.677,185.626 172.403,181.807 174.341 C 181.407 174.544,180.916 174.849,180.716 175.018 C 180.515 175.188,179.290 175.631,177.991 176.003 C 174.101 177.118,173.011 176.496,174.171 173.822 C 174.465 173.144,174.855 172.236,175.037 171.804 C 176.845 167.521,176.957 160.073,175.217 159.902 C 173.081 159.692,167.026 164.248,164.164 168.218 C 164.066 168.354,163.733 168.793,163.424 169.193 C 161.431 171.776,158.604 177.899,157.433 182.171 C 157.195 183.038,156.892 184.021,156.759 184.354 C 156.627 184.688,156.446 185.561,156.357 186.295 C 156.268 187.029,156.022 188.572,155.811 189.725 C 154.636 196.142,158.436 201.673,162.627 199.644 C 163.681 199.134,167.132 195.716,167.132 195.183 C 167.132 195.052,167.280 194.772,167.462 194.561 C 167.644 194.351,168.478 192.868,169.315 191.267 C 172.376 185.413,172.816 184.982,178.047 182.710 C 181.096 181.386,186.292 180.227,187.408 180.622 C 189.711 181.438,189.710 182.242,187.393 191.025 C 186.894 192.918,184.870 199.305,184.472 200.243 C 184.302 200.643,184.086 201.352,183.992 201.819 C 183.898 202.286,183.679 202.894,183.505 203.169 C 183.331 203.445,183.077 204.045,182.940 204.503 C 182.584 205.693,181.431 208.448,181.175 208.720 C 181.056 208.847,180.958 209.112,180.958 209.310 C 180.958 209.507,180.174 211.259,179.215 213.203 C 177.717 216.239,176.825 217.753,174.486 221.225 C 173.339 222.928,170.810 224.998,169.295 225.474 C 168.973 225.576,168.328 225.862,167.863 226.110 C 167.398 226.359,166.845 226.562,166.634 226.562 C 166.423 226.562,165.438 226.777,164.447 227.041 C 157.546 228.876,146.270 224.967,146.270 220.740 C 146.270 219.374,148.007 217.240,150.331 215.749 C 151.100 215.256,152.036 214.641,152.412 214.381 C 152.787 214.122,153.676 213.849,154.386 213.776 L 155.677 213.643 158.656 216.470 C 162.354 219.978,163.129 220.261,163.879 218.378 C 164.079 217.876,164.343 217.247,164.466 216.980 C 164.706 216.459,165.576 213.697,166.391 210.872 C 167.060 208.549,167.673 205.261,167.492 204.967 C 167.268 204.605,166.501 204.685,166.152 205.105 C 165.511 205.878,161.865 208.462,160.104 209.392 C 151.124 214.136,142.025 210.906,139.112 201.941 C 137.730 197.684,137.679 189.929,139.008 185.991 C 139.267 185.223,139.478 184.475,139.478 184.329 C 139.478 184.055,139.769 183.364,140.964 180.792 C 141.348 179.966,141.662 179.188,141.662 179.063 C 141.662 178.937,141.815 178.707,142.002 178.552 C 142.189 178.397,142.412 177.991,142.498 177.649 C 142.583 177.308,142.852 176.739,143.095 176.386 C 143.338 176.032,143.924 175.143,144.396 174.409 C 148.858 167.482,156.524 160.199,162.949 156.782 C 163.784 156.338,164.658 155.869,164.890 155.741 C 170.240 152.779,178.107 151.534,182.817 152.903 M225.089 152.869 C 231.572 155.043,233.712 162.302,229.866 169.072 C 229.525 169.673,229.063 170.491,228.840 170.891 C 227.871 172.632,224.430 176.285,222.587 177.531 C 216.371 181.733,214.397 181.256,216.961 176.172 C 218.710 172.705,218.973 172.123,219.147 171.330 C 219.238 170.915,219.525 170.159,219.784 169.651 C 220.043 169.143,220.259 168.504,220.265 168.233 C 220.271 167.961,220.439 167.301,220.637 166.768 C 221.135 165.431,221.953 160.593,221.953 158.982 C 221.953 156.890,220.832 156.647,219.631 158.478 C 219.265 159.035,218.787 159.763,218.569 160.097 C 218.351 160.431,217.872 161.413,217.505 162.280 C 217.138 163.147,216.632 164.294,216.380 164.827 C 215.753 166.154,214.253 170.306,213.706 172.226 C 213.460 173.093,212.977 174.785,212.634 175.985 C 212.292 177.186,211.895 178.769,211.754 179.503 C 211.613 180.237,211.345 181.328,211.159 181.928 C 210.973 182.529,210.702 184.042,210.557 185.291 C 210.412 186.541,210.169 188.025,210.018 188.589 C 209.307 191.247,210.269 190.987,213.798 187.568 C 217.462 184.018,222.381 179.988,223.050 179.988 C 223.139 179.988,223.502 179.783,223.856 179.532 C 227.436 177.000,231.294 177.445,231.921 180.462 C 232.251 182.049,232.049 185.817,231.498 188.351 C 231.012 190.587,230.798 196.010,231.134 197.574 C 231.278 198.241,231.550 199.524,231.738 200.424 C 231.927 201.324,232.204 202.361,232.353 202.728 C 233.714 206.066,233.676 207.731,232.221 208.628 C 222.889 214.385,217.130 211.447,216.978 200.849 C 216.948 198.781,216.909 197.007,216.891 196.907 C 216.785 196.315,215.740 197.207,211.621 201.399 C 206.151 206.966,202.435 210.023,200.345 210.676 C 200.022 210.777,199.542 211.009,199.279 211.191 C 195.656 213.699,191.936 206.976,193.087 200.000 C 193.219 199.200,193.438 197.617,193.573 196.483 C 193.708 195.349,194.024 193.711,194.274 192.844 C 194.524 191.977,194.842 190.831,194.981 190.297 C 195.544 188.142,196.791 184.279,197.449 182.656 C 197.692 182.056,198.237 180.650,198.659 179.533 C 199.081 178.416,199.518 177.324,199.630 177.108 C 199.742 176.891,200.956 174.423,202.329 171.624 C 203.702 168.825,205.273 165.769,205.821 164.832 C 206.368 163.895,207.029 162.757,207.289 162.301 C 207.795 161.416,210.603 157.791,211.252 157.185 C 215.983 152.768,220.545 151.345,225.089 152.869 M343.360 153.282 C 343.093 153.376,342.492 153.622,342.025 153.828 C 341.559 154.035,341.013 154.261,340.813 154.331 C 339.896 154.653,337.452 156.775,336.779 157.833 C 335.485 159.867,333.778 163.401,333.778 164.044 C 333.778 164.259,333.670 164.501,333.539 164.583 C 333.407 164.664,333.119 165.351,332.898 166.110 C 332.678 166.869,332.406 167.655,332.295 167.856 C 332.183 168.058,331.931 168.633,331.735 169.133 C 331.473 169.800,331.235 170.042,330.844 170.042 C 330.040 170.042,327.884 171.583,326.682 173.015 C 323.941 176.283,323.853 180.210,326.501 181.052 C 327.791 181.462,327.775 181.676,326.014 187.750 C 325.763 188.617,325.492 189.709,325.412 190.176 C 325.333 190.643,325.062 191.844,324.810 192.844 C 322.604 201.609,324.275 207.578,329.649 210.134 C 331.618 211.070,335.919 211.238,337.902 210.456 C 338.502 210.219,339.334 209.895,339.750 209.736 C 343.955 208.133,348.769 202.559,345.963 202.543 C 340.460 202.512,338.620 198.770,339.942 190.297 C 340.130 189.096,340.352 187.459,340.436 186.659 C 340.578 185.311,341.353 182.288,341.775 181.443 C 341.889 181.214,342.486 181.020,343.393 180.918 C 346.808 180.534,349.307 178.503,350.272 175.326 C 351.277 172.017,350.377 170.581,347.044 170.175 C 345.182 169.949,344.994 168.535,346.399 165.312 C 346.632 164.779,346.902 163.960,346.999 163.493 C 347.096 163.026,347.325 162.371,347.508 162.038 C 349.109 159.117,349.654 155.334,348.635 154.208 C 347.692 153.165,345.020 152.697,343.360 153.282 M347.905 153.916 C 349.111 154.792,349.294 157.238,348.295 159.123 C 348.049 159.588,347.847 160.122,347.847 160.309 C 347.847 160.497,347.638 161.099,347.382 161.647 C 346.699 163.111,345.324 167.392,345.024 168.988 C 344.856 169.884,345.176 170.129,346.877 170.407 C 349.550 170.844,350.413 171.787,350.181 174.011 C 349.805 177.610,346.443 180.701,342.888 180.719 C 341.496 180.726,340.827 182.088,340.206 186.185 C 340.004 187.513,339.737 189.145,339.613 189.812 C 339.090 192.608,339.299 198.602,339.958 199.727 C 340.987 201.482,343.732 203.032,345.811 203.032 C 348.076 203.032,342.448 208.738,339.442 209.491 C 339.062 209.586,338.260 209.885,337.659 210.155 C 335.831 210.977,331.957 210.836,329.897 209.872 C 324.730 207.455,322.758 200.685,325.043 193.208 C 325.288 192.408,325.556 191.261,325.640 190.661 C 325.780 189.654,326.148 188.265,327.179 184.862 C 327.898 182.486,327.753 181.138,326.743 180.812 C 322.822 179.547,326.209 171.352,331.130 170.200 C 331.642 170.080,331.878 169.733,332.426 168.289 C 332.795 167.319,333.305 166.058,333.559 165.488 C 333.813 164.917,334.021 164.328,334.021 164.178 C 334.021 163.921,334.700 162.403,335.791 160.218 C 337.434 156.932,339.013 155.466,342.511 153.979 C 344.454 153.153,346.817 153.126,347.905 153.916 M68.157 162.417 C 68.026 162.759,67.920 163.216,67.920 163.431 C 67.920 163.646,67.715 164.485,67.465 165.295 C 67.215 166.105,66.829 167.477,66.607 168.344 C 66.384 169.212,66.048 170.522,65.859 171.255 C 65.670 171.989,65.347 173.244,65.141 174.045 C 64.935 174.845,64.596 176.046,64.388 176.713 C 64.180 177.380,63.859 178.581,63.674 179.381 C 63.038 182.138,62.562 183.992,62.303 184.718 C 62.160 185.118,61.852 186.264,61.619 187.265 C 61.385 188.266,60.891 190.176,60.522 191.510 C 60.152 192.844,59.717 194.645,59.554 195.512 C 59.061 198.149,58.321 200.080,56.435 203.653 C 55.679 205.085,55.898 205.217,58.998 205.201 C 61.639 205.187,62.209 205.123,65.373 204.490 C 69.271 203.709,73.603 200.416,76.483 196.046 C 77.894 193.904,79.482 190.527,79.814 188.963 C 79.913 188.496,80.195 187.404,80.440 186.537 C 81.047 184.391,81.067 176.338,80.469 174.651 C 80.256 174.051,80.006 173.123,79.912 172.589 C 79.267 168.906,75.037 163.501,71.891 162.341 C 69.812 161.574,68.467 161.601,68.157 162.417 M71.412 162.564 C 74.023 163.491,78.593 168.133,78.593 169.856 C 78.593 170.029,78.809 170.574,79.073 171.067 C 79.337 171.560,79.660 172.540,79.790 173.246 C 79.921 173.952,80.207 175.458,80.426 176.592 C 81.122 180.194,80.335 187.758,78.995 190.346 C 78.774 190.773,78.593 191.281,78.593 191.475 C 78.593 191.669,78.217 192.492,77.758 193.304 C 74.881 198.394,71.699 201.618,67.833 203.360 C 65.012 204.630,56.955 205.515,56.601 204.593 C 56.454 204.210,56.527 204.034,57.645 202.062 C 58.386 200.757,59.673 197.019,59.673 196.174 C 59.673 195.844,59.842 195.096,60.050 194.512 C 60.258 193.928,60.582 192.796,60.770 191.995 C 61.535 188.741,61.897 187.311,62.337 185.810 C 63.002 183.536,63.540 181.532,63.930 179.867 C 64.326 178.179,65.648 173.246,66.819 169.080 C 67.024 168.350,67.192 167.516,67.192 167.227 C 67.192 166.937,67.408 166.224,67.672 165.642 C 67.936 165.060,68.154 164.292,68.157 163.933 C 68.173 161.962,68.881 161.664,71.412 162.564 M261.977 168.343 C 258.466 169.112,257.589 169.346,256.519 169.804 C 248.741 173.132,242.406 178.883,239.156 185.567 C 238.474 186.968,237.819 188.302,237.699 188.532 C 235.817 192.143,235.908 199.783,237.877 203.487 C 239.607 206.741,244.160 209.962,248.163 210.765 C 248.756 210.884,249.893 211.157,250.688 211.373 C 256.901 213.057,266.261 210.539,272.650 205.466 C 278.794 200.588,282.066 191.093,280.279 183.330 C 278.255 174.542,271.389 171.370,264.160 175.883 C 263.960 176.008,263.523 176.243,263.190 176.405 C 261.815 177.074,260.764 178.115,260.764 178.808 C 260.764 179.479,261.083 179.869,263.281 181.888 C 269.877 187.946,268.612 201.027,261.191 203.496 L 259.569 204.036 257.852 203.483 C 255.620 202.764,254.365 201.579,253.113 199.010 L 252.177 197.089 252.182 193.329 C 252.187 189.313,252.532 187.478,253.876 184.324 C 254.196 183.573,254.457 182.886,254.457 182.796 C 254.457 182.706,254.894 181.975,255.428 181.172 C 255.961 180.368,256.398 179.630,256.398 179.531 C 256.398 179.432,257.177 178.505,258.129 177.472 C 261.026 174.328,263.752 172.817,267.757 172.134 C 270.903 171.598,271.316 171.369,271.316 170.164 C 271.316 168.450,266.120 167.437,261.977 168.343 M268.560 168.729 C 272.160 169.412,272.393 170.976,268.975 171.520 C 262.781 172.505,258.977 174.993,255.619 180.253 C 254.453 182.081,254.026 183.013,252.652 186.735 C 249.083 196.400,255.307 207.054,262.400 203.421 C 269.746 199.659,269.800 187.216,262.497 180.724 C 261.677 179.996,261.007 179.199,261.007 178.953 C 261.007 178.485,262.632 176.838,263.096 176.836 C 263.245 176.835,263.627 176.630,263.945 176.380 C 267.513 173.581,273.430 173.594,276.223 176.408 C 284.092 184.336,280.570 200.751,269.618 207.192 C 268.951 207.584,268.241 208.005,268.041 208.127 C 267.734 208.315,265.603 209.296,263.796 210.083 C 257.623 212.769,247.323 211.477,241.639 207.305 C 236.102 203.241,234.963 194.964,238.827 186.877 C 239.152 186.197,239.418 185.570,239.418 185.485 C 239.418 184.100,246.070 176.356,248.821 174.539 C 249.320 174.210,250.171 173.637,250.714 173.265 C 252.491 172.048,255.752 170.286,256.234 170.284 C 256.391 170.283,256.847 170.108,257.247 169.895 C 259.391 168.754,265.418 168.133,268.560 168.729 M122.741 169.814 C 115.908 170.966,108.833 176.064,104.582 182.899 C 103.331 184.910,100.910 189.788,100.910 190.297 C 100.910 190.510,100.730 191.032,100.511 191.456 C 100.292 191.880,99.960 192.829,99.773 193.566 C 99.585 194.303,99.311 195.343,99.162 195.876 C 97.949 200.221,99.122 205.629,101.872 208.372 C 104.393 210.887,106.134 211.587,110.188 211.715 C 115.775 211.892,121.787 209.317,128.684 203.790 C 134.088 199.460,134.808 197.573,131.484 196.443 C 129.654 195.821,128.342 196.335,125.167 198.921 C 122.022 201.482,118.294 202.844,116.138 202.220 C 114.334 201.698,114.703 201.113,117.237 200.477 C 120.674 199.614,122.943 198.144,127.031 194.132 C 138.474 182.902,135.778 167.617,122.741 169.814 M128.287 170.326 C 133.663 171.349,135.553 179.945,131.959 187.027 C 129.931 191.024,123.272 198.016,120.748 198.800 C 120.443 198.895,119.918 199.166,119.582 199.403 C 118.940 199.855,116.670 200.364,115.298 200.364 C 114.049 200.364,114.312 201.705,115.702 202.423 C 117.573 203.391,120.966 202.338,124.682 199.638 C 128.947 196.539,129.643 196.246,131.474 196.787 C 132.703 197.150,133.290 197.990,133.031 199.018 C 132.877 199.634,129.375 203.113,127.922 204.094 C 123.892 206.815,122.883 207.464,121.407 208.281 C 107.442 216.013,96.218 209.142,99.758 195.027 C 102.685 183.354,109.130 175.398,119.224 171.000 C 121.449 170.030,125.246 169.748,128.287 170.326 M306.413 170.079 C 300.464 170.931,292.339 176.154,289.112 181.201 C 288.643 181.935,288.052 182.862,287.799 183.263 C 285.539 186.836,284.940 191.033,286.213 194.369 C 286.807 195.925,290.005 198.367,292.502 199.171 C 292.990 199.328,293.500 199.544,293.635 199.650 C 293.770 199.756,294.535 200.006,295.333 200.207 C 304.047 202.395,306.207 206.403,301.283 211.251 C 296.380 216.079,293.826 211.322,297.434 204.082 C 299.326 200.286,291.506 201.798,287.326 206.037 C 279.629 213.842,285.658 220.803,298.805 219.291 C 309.350 218.079,321.496 206.480,319.724 199.315 C 318.728 195.291,316.185 193.767,306.853 191.605 C 302.959 190.703,301.041 189.321,300.844 187.276 C 300.458 183.259,304.165 176.349,306.707 176.349 C 307.999 176.349,308.796 181.352,307.965 184.249 C 306.845 188.155,307.007 189.937,308.520 190.360 C 314.928 192.149,322.667 182.069,319.649 175.864 C 317.430 171.302,312.603 169.192,306.413 170.079 M314.290 171.164 C 319.008 173.413,321.103 177.862,319.475 182.171 C 317.422 187.604,311.241 191.831,308.257 189.843 C 307.286 189.196,307.247 188.745,307.930 185.966 C 309.058 181.375,308.471 175.831,306.863 175.874 C 304.950 175.926,301.887 180.000,300.852 183.869 C 299.473 189.021,300.867 190.545,308.672 192.416 C 317.541 194.543,319.886 196.602,319.365 201.801 C 318.881 206.618,312.010 214.299,305.882 216.872 C 305.549 217.012,304.832 217.339,304.290 217.599 C 303.747 217.859,303.134 218.072,302.927 218.072 C 302.719 218.072,301.870 218.289,301.039 218.554 C 297.840 219.576,291.389 219.437,288.773 218.290 C 281.707 215.191,283.876 206.417,292.568 202.939 C 296.572 201.338,297.805 202.217,296.380 205.660 C 293.619 212.337,297.483 216.228,301.882 211.199 C 306.416 206.016,304.418 202.329,295.816 200.002 C 289.978 198.422,286.550 195.787,286.031 192.480 C 284.933 185.495,290.967 176.993,300.290 172.387 C 301.550 171.765,302.784 171.255,303.031 171.255 C 303.278 171.255,303.802 171.089,304.194 170.887 C 306.251 169.823,311.797 169.975,314.290 171.164 M120.447 176.994 C 116.333 181.230,111.485 198.423,114.405 198.423 C 116.686 198.423,121.684 189.263,122.479 183.626 C 122.620 182.626,122.823 181.261,122.931 180.594 C 123.521 176.930,122.271 175.117,120.447 176.994 M122.514 177.620 C 123.205 180.187,121.484 188.100,119.387 191.995 C 117.910 194.739,115.242 197.938,114.430 197.938 C 112.534 197.938,114.451 189.154,117.897 182.050 C 120.595 176.488,121.878 175.258,122.514 177.620 " stroke="none" fill="#2391f6" fill-rule="evenodd"></path></g></svg>